<svg width="116" height="53" viewBox="0 0 116 53" fill="none" xmlns="http://www.w3.org/2000/svg">
<g id="logo_white 2" clip-path="url(#clip0_1227_228)">
<g id="Symbols">
<g id="best_logo_eng">
<g id="Group">
<path id="Fill-1" fill-rule="evenodd" clip-rule="evenodd" d="M28.2847 50.0837C28.2847 50.4585 28.0199 50.7127 27.5597 50.7127H26.6007V49.4357H27.5411C28.0019 49.4357 28.2847 49.6518 28.2847 50.0705V50.0837ZM29.2434 50.0324V50.0203C29.2434 49.6006 29.1143 49.2517 28.8743 49.0036C28.5922 48.7113 28.1679 48.5525 27.6207 48.5525H25.6543V53H26.6007V51.5767H27.3445L28.2658 53H29.3722L28.3218 51.4116C28.8684 51.2019 29.2434 50.7508 29.2434 50.0324Z" fill="#F2F2F1"/>
<path id="Fill-2" fill-rule="evenodd" clip-rule="evenodd" d="M2.67138 50.122C2.67138 50.503 2.36941 50.7953 1.85238 50.7953H1.03372V49.4357H1.83209C2.34878 49.4357 2.67138 49.6703 2.67138 50.1089V50.122ZM1.91933 48.5524H0V53H1.03372V51.6657H1.8189C2.87224 51.6657 3.71795 51.1321 3.71795 50.1028V50.09C3.71795 49.1815 3.0403 48.5524 1.91933 48.5524Z" fill="#F2F2F1"/>
<path id="Fill-3" fill-rule="evenodd" clip-rule="evenodd" d="M32.7183 50.4326L31.5454 48.5524H30.4872V53H31.4497V50.1153L32.6929 51.9964H32.7183L33.9734 50.0964V53H34.9487V48.5524H33.8908L32.7183 50.4326Z" fill="#F2F2F1"/>
<path id="Fill-4" fill-rule="evenodd" clip-rule="evenodd" d="M5.79393 51.1955H7.86507V50.3247H5.79393V49.4226H8.14816V48.5525H4.83301V53H8.17916V52.1293H5.79393V51.1955Z" fill="#F2F2F1"/>
<path id="Fill-5" fill-rule="evenodd" clip-rule="evenodd" d="M14.8721 53H15.839V51.2781H17.9358V50.3888H15.839V49.4421H18.2182V48.5525H14.8721V53Z" fill="#F2F2F1"/>
<path id="Fill-6" fill-rule="evenodd" clip-rule="evenodd" d="M12.2971 50.0837C12.2971 50.4585 12.0326 50.7127 11.5721 50.7127H10.6134V49.4357H11.5535C12.0143 49.4357 12.2971 49.6518 12.2971 50.0705V50.0837ZM13.2561 50.0324V50.0203C13.2561 49.6006 13.127 49.2517 12.887 49.0036C12.6046 48.7113 12.18 48.5525 11.6331 48.5525H9.66699V53H10.6134V51.5767H11.3566L12.2785 53H13.3849L12.3342 51.4116C12.8811 51.2019 13.2561 50.7508 13.2561 50.0324Z" fill="#F2F2F1"/>
<path id="Fill-7" fill-rule="evenodd" clip-rule="evenodd" d="M37.8621 51.151L38.4683 49.7197L39.0736 51.151H37.8621ZM38.0187 48.5525L36.0645 53H37.0872L37.504 52.0096H39.432L39.8488 53H40.8978L38.9436 48.5525H38.0187Z" fill="#F2F2F1"/>
<path id="Fill-8" fill-rule="evenodd" clip-rule="evenodd" d="M23.1202 50.7886C23.1202 51.5254 22.5614 52.1274 21.7562 52.1274C20.9503 52.1274 20.3788 51.513 20.3788 50.776V50.7639C20.3788 50.0265 20.9376 49.4242 21.7428 49.4242C22.549 49.4242 23.1202 50.0392 23.1202 50.776V50.7886ZM21.7562 48.5525C20.353 48.5525 19.333 49.5532 19.333 50.776V50.7886C19.333 52.0107 20.3402 53 21.7428 53C23.1464 53 24.1663 51.9987 24.1663 50.776V50.7639C24.1663 49.5412 23.1592 48.5525 21.7562 48.5525Z" fill="#F2F2F1"/>
<path id="Fill-9" fill-rule="evenodd" clip-rule="evenodd" d="M87.8599 51.2912L85.7034 48.5525H84.7695V53H85.7696V50.1727L87.9977 53H88.8593V48.5525H87.8599V51.2912Z" fill="#F2F2F1"/>
<path id="Fill-10" fill-rule="evenodd" clip-rule="evenodd" d="M97.8502 50.122C97.8502 50.503 97.5486 50.7953 97.0315 50.7953H96.2129V49.4357H97.0116C97.5283 49.4357 97.8502 49.6703 97.8502 50.1089V50.122ZM97.0992 48.5524H95.1795V53H96.2129V51.6657H96.9984C98.0517 51.6657 98.8975 51.1321 98.8975 50.1028V50.09C98.8975 49.1815 98.2191 48.5524 97.0992 48.5524Z" fill="#F2F2F1"/>
<path id="Fill-11" fill-rule="evenodd" clip-rule="evenodd" d="M100.013 53H101.128V48.5524H100.013V53Z" fill="#F2F2F1"/>
<path id="Fill-12" fill-rule="evenodd" clip-rule="evenodd" d="M92.2024 50.3501C91.39 50.1584 91.1888 50.0659 91.1888 49.782V49.7696C91.1888 49.5595 91.3971 49.3923 91.7928 49.3923C92.1889 49.3923 92.5984 49.5533 93.0144 49.8188L93.5515 49.1025C93.075 48.7505 92.4912 48.5525 91.8064 48.5525C90.8469 48.5525 90.1616 49.0714 90.1616 49.8561V49.8683C90.1616 50.7268 90.7728 50.968 91.7194 51.1903C92.5041 51.3752 92.6661 51.4994 92.6661 51.7397V51.7524C92.6661 52.0058 92.4107 52.1599 91.988 52.1599C91.4512 52.1599 91.0075 51.9566 90.5847 51.6345L89.9746 52.3081C90.5381 52.7719 91.2561 53 91.9673 53C92.981 53 93.6926 52.5185 93.6926 51.6594V51.6472C93.6926 50.8939 93.1555 50.5789 92.2024 50.3501Z" fill="#F2F2F1"/>
<path id="Fill-13" fill-rule="evenodd" clip-rule="evenodd" d="M82.167 53H83.2824V48.5525H82.167V53Z" fill="#F2F2F1"/>
<path id="Fill-14" fill-rule="evenodd" clip-rule="evenodd" d="M114.509 50.3501C113.698 50.1583 113.496 50.0659 113.496 49.782V49.7695C113.496 49.5594 113.705 49.3923 114.1 49.3923C114.496 49.3923 114.905 49.5532 115.322 49.8187L115.859 49.1025C115.382 48.7504 114.799 48.5524 114.114 48.5524C113.155 48.5524 112.47 49.0714 112.47 49.8561V49.8682C112.47 50.7267 113.081 50.968 114.027 51.1902C114.812 51.3751 114.973 51.4993 114.973 51.7396V51.7524C114.973 52.0058 114.718 52.1599 114.295 52.1599C113.758 52.1599 113.315 51.9566 112.892 51.6344L112.282 52.308C112.846 52.7718 113.564 53 114.275 53C115.289 53 116 52.5185 116 51.6593V51.6472C116 50.8939 115.463 50.5789 114.509 50.3501Z" fill="#F2F2F1"/>
<path id="Fill-15" fill-rule="evenodd" clip-rule="evenodd" d="M45.1033 51.2912L42.9461 48.5524H42.0128V53H43.0124V50.1726L45.2415 53H46.1026V48.5524H45.1033V51.2912Z" fill="#F2F2F1"/>
<path id="Fill-16" fill-rule="evenodd" clip-rule="evenodd" d="M108.781 51.1954H110.853V50.3247H108.781V49.4226H111.135V48.5524H107.82V53H111.167V52.1293H108.781V51.1954Z" fill="#F2F2F1"/>
<path id="Fill-17" fill-rule="evenodd" clip-rule="evenodd" d="M105.246 50.0836C105.246 50.4585 104.982 50.7127 104.521 50.7127H103.562V49.4357H104.502C104.963 49.4357 105.246 49.6518 105.246 50.0705V50.0836ZM106.204 50.0324V50.0202C106.204 49.6005 106.075 49.2516 105.836 49.0035C105.553 48.7112 105.129 48.5524 104.582 48.5524H102.615V53H103.562V51.5767H104.306L105.228 53H106.333L105.283 51.4115C105.83 51.2018 106.204 50.7508 106.204 50.0324Z" fill="#F2F2F1"/>
<path id="Fill-18" fill-rule="evenodd" clip-rule="evenodd" d="M74.7305 49.4546H76.0955V53H77.0833V49.4546H78.4484V48.5525H74.7305V49.4546Z" fill="#F2F2F1"/>
<path id="Fill-19" fill-rule="evenodd" clip-rule="evenodd" d="M60.2305 49.4546H61.5953V53H62.5832V49.4546H63.9484V48.5525H60.2305V49.4546Z" fill="#F2F2F1"/>
<path id="Fill-20" fill-rule="evenodd" clip-rule="evenodd" d="M54.1278 51.1955H56.1988V50.3247H54.1278V49.4226H56.4815V48.5525H53.167V53H56.5131V52.1293H54.1278V51.1955Z" fill="#F2F2F1"/>
<path id="Fill-21" fill-rule="evenodd" clip-rule="evenodd" d="M49.8939 52.1274C49.1345 52.1274 48.6091 51.5129 48.6091 50.7759V50.7638C48.6091 50.0265 49.1469 49.4241 49.8939 49.4241C50.3373 49.4241 50.6849 49.6089 51.0265 49.9098L51.6472 49.2155C51.2358 48.8224 50.7363 48.5524 49.9003 48.5524C48.5393 48.5524 47.5897 49.5532 47.5897 50.7759V50.7886C47.5897 52.0234 48.5581 53 49.8623 53C50.7168 53 51.223 52.7053 51.6795 52.2323L51.0588 51.6238C50.7105 51.9308 50.4004 52.1274 49.8939 52.1274Z" fill="#F2F2F1"/>
<path id="Fill-22" fill-rule="evenodd" clip-rule="evenodd" d="M68.1867 50.3122H66.4027V48.5525H65.4355V53H66.4027V51.2144H68.1867V53H69.1535V48.5525H68.1867V50.3122Z" fill="#F2F2F1"/>
<path id="Fill-23" fill-rule="evenodd" clip-rule="evenodd" d="M71.6951 51.151L72.301 49.7196L72.9066 51.151H71.6951ZM71.8517 48.5524L69.8975 53H70.9199L71.337 52.0095H73.2653L73.6818 53H74.7308L72.7766 48.5524H71.8517Z" fill="#F2F2F1"/>
<g id="Group 22935">
<path id="Fill-24" fill-rule="evenodd" clip-rule="evenodd" d="M39.8702 30.2191C39.706 30.3874 39.4626 30.4577 39.2289 30.4064C38.9978 30.3541 38.8095 30.1893 38.7268 29.9654C37.4028 26.3377 38.3575 22.2729 41.1574 19.6111C43.9628 16.945 48.0806 16.1815 51.6556 17.6675C51.7857 17.722 51.8794 17.8359 51.9077 17.9712C51.9344 18.1078 51.8935 18.2486 51.7937 18.3467L39.8702 30.2191ZM16.0394 36.374C10.6472 36.374 6.27645 32.0152 6.27645 26.6417C6.27645 21.2744 10.6472 16.9194 16.0394 16.9194C21.4332 16.9194 25.8017 21.2744 25.8017 26.6417C25.8017 32.0152 21.4332 36.374 16.0394 36.374ZM114.9 42.6036C115.092 42.6129 115.276 42.5424 115.41 42.4141C115.551 42.2826 115.628 42.1014 115.628 41.9116V37.0387C115.628 36.6735 115.346 36.3743 114.98 36.3467C109.853 36.0043 105.867 31.7657 105.867 26.6417V17.6127C105.867 17.4289 105.937 17.2516 106.068 17.1217C106.201 16.9919 106.377 16.9197 106.564 16.9197H114.932C115.317 16.9197 115.628 16.6064 115.628 16.2239V11.3616C115.628 11.1788 115.554 11.0002 115.426 10.8697C115.292 10.7392 115.113 10.6654 114.932 10.6654H106.564C106.377 10.6654 106.201 10.5949 106.068 10.4631C105.937 10.3342 105.867 10.1568 105.867 9.97277V0.693925C105.867 0.309765 105.555 0 105.165 0H100.287C100.102 0 99.9236 0.0718296 99.7951 0.203303C99.6619 0.333815 99.5898 0.510824 99.5898 0.693925V24.8155C99.1735 21.2035 97.5273 17.7134 94.6675 15.0252C88.2652 9.00371 78.1836 9.25287 72.0848 15.5816L54.9474 33.3745C52.2711 36.1569 48.2003 37.0997 44.5693 35.7833C44.343 35.7009 44.1756 35.5152 44.1263 35.2815C44.0736 35.0509 44.144 34.8075 44.314 34.6414L60.8305 18.1854C61.0722 17.9443 61.1031 17.5639 60.9013 17.2866C56.9503 11.8384 49.9943 9.43308 43.4996 11.2801C37.2441 13.0605 32.7098 18.4134 31.971 24.8046C31.5416 21.124 29.8342 17.6034 26.9593 14.9431C21.5858 9.96668 13.5144 9.25832 7.35353 13.215C7.13882 13.3504 6.86263 13.3613 6.63955 13.2401C6.41615 13.1201 6.27645 12.8835 6.27645 12.6301V0.693925C6.27645 0.511144 6.2037 0.333815 6.07365 0.204907C5.94038 0.0718296 5.76495 0 5.58146 0H0.700781C0.511502 0 0.336388 0.0718296 0.205052 0.204907C0.0730718 0.333815 0 0.511144 0 0.693925V26.6417C0 33.9481 4.9721 40.3211 12.0768 42.1255C19.1809 43.9296 26.611 40.7085 30.1255 34.2916C31.1321 32.4506 31.7405 30.4814 31.9716 28.491C32.6177 34.0344 36.1496 38.9307 41.4034 41.2523C47.5765 43.9761 54.8003 42.5574 59.4769 37.7048L76.6172 19.909C80.3056 16.077 86.4046 15.9054 90.3148 19.5226C94.214 23.1436 94.4815 29.2128 90.9077 33.159C87.3391 37.1035 81.2449 37.4617 77.2311 33.9642C76.9562 33.7237 76.5364 33.7375 76.2805 33.9959L72.8213 37.4418C72.6878 37.573 72.6163 37.757 72.6185 37.9462C72.6237 38.1367 72.7071 38.3156 72.8484 38.4433C79.3476 44.3586 89.4209 43.944 95.4179 37.5146C97.9709 34.7739 99.3705 31.377 99.6448 27.9157C100.276 35.8757 106.762 42.2348 114.9 42.6036Z" fill="#F2F2F1"/>
<path id="Fill-25" fill-rule="evenodd" clip-rule="evenodd" d="M109.677 4.78004H110.185C110.442 4.78004 110.717 4.84005 110.717 5.16098C110.717 5.55926 110.436 5.58397 110.121 5.58397H109.677V4.78004ZM109.677 5.91742H110.105L110.75 7.04196H111.167L110.47 5.8988C110.829 5.85162 111.103 5.64944 111.103 5.18633C111.103 4.67317 110.817 4.44755 110.24 4.44755H109.308V7.04196H109.677V5.91742Z" fill="#F2F2F1"/>
<path id="Fill-26" fill-rule="evenodd" clip-rule="evenodd" d="M110.056 4.07653C111.055 4.07653 111.839 4.87029 111.839 5.92388C111.839 6.99556 111.055 7.78266 110.056 7.78266C109.05 7.78266 108.265 6.99556 108.265 5.92388C108.265 4.87029 109.05 4.07653 110.056 4.07653ZM110.056 8.15385C111.26 8.15385 112.282 7.21288 112.282 5.92388C112.282 4.64758 111.26 3.7063 110.056 3.7063C108.847 3.7063 107.82 4.64758 107.82 5.92388C107.82 7.21288 108.847 8.15385 110.056 8.15385Z" fill="#F2F2F1"/>
</g>
</g>
</g>
</g>
</g>
<defs>
<clipPath id="clip0_1227_228">
<rect width="116" height="53" fill="white"/>
</clipPath>
</defs>
</svg>
