<svg xmlns="http://www.w3.org/2000/svg" viewBox="0 0 413.3 92.45"><defs><style>.cls-1{fill:#172a54;}</style></defs><g id="Layer_2" data-name="Layer 2"><g id="Layer_1-2" data-name="Layer 1"><path class="cls-1" d="M140.73,75.3H144V88.07c0,1.24.55,1.85,1.72,1.85s1.71-.61,1.71-1.85V75.3h3.23V88c0,2.91-1.87,4.5-4.94,4.5s-5-1.59-5-4.5Z"/><path class="cls-1" d="M153.54,92.22V79.61h2.76v1.26c1.22-.93,1.84-1.5,3.53-1.5A2.35,2.35,0,0,1,162.28,82v10.2h-2.91V82.44c0-.63-.42-.91-1-.91a3.58,3.58,0,0,0-1.88.8v9.89Z"/><path class="cls-1" d="M165.07,92.22V75.3H168V92.22Z"/><path class="cls-1" d="M179.66,86.41h-6.14v1.82c0,1.46.58,2.07,1.62,2.07s1.61-.61,1.61-2.07V88h2.91c0,2.67-1.27,4.5-4.52,4.5s-4.53-1.92-4.53-4.69v-3.7c0-2.76,1.2-4.69,4.53-4.69s4.52,1.93,4.52,4.69Zm-2.91-2.16v-.66c0-1.45-.57-2.06-1.61-2.06s-1.62.61-1.62,2.06v.66Z"/><path class="cls-1" d="M182,83.31c.16-2.55,2-3.94,4.69-3.94s4.24,1.13,4.24,3.43v8.08a9.14,9.14,0,0,0,.18,1.34h-2.78c0-.35-.13-.68-.16-1a5.24,5.24,0,0,1-3.41,1.22,2.68,2.68,0,0,1-3-2.83c0-2.77,2-4.29,6.22-5.72v-.75c0-1.06-.47-1.62-1.43-1.62-1.33,0-1.62.7-1.67,1.78Zm6,2.51c-2.66,1.36-3.31,2.23-3.31,3.33,0,.82.47,1.15,1.35,1.15a2.6,2.6,0,0,0,2-1.18Z"/><path class="cls-1" d="M199.08,83.1c-.21-1-.73-1.57-1.67-1.57-.75,0-1.27.35-1.27,1,0,2,5.46,2.76,5.46,6.51,0,2.25-1.71,3.4-4.08,3.4a4.09,4.09,0,0,1-4.45-3.51l2.55-.64c.18,1.06.6,2,1.92,2,.76,0,1.3-.4,1.3-1.11,0-2.18-5.46-3-5.46-6.44,0-2,1.72-3.38,3.9-3.38a4.16,4.16,0,0,1,4.27,3.36Z"/><path class="cls-1" d="M203.84,92.22V75.3h2.92v5.48a4.57,4.57,0,0,1,3.38-1.41A2.36,2.36,0,0,1,212.59,82v10.2h-2.92V82.44c0-.63-.42-.91-1-.91a3.55,3.55,0,0,0-1.87.8v9.89Z"/><path class="cls-1" d="M228.05,92.22h-3.23v-7l-3.9-9.89h3.28l2.26,6.44h0l2.16-6.44H232l-3.9,9.89Z"/><path class="cls-1" d="M232.58,84.06c0-2.76,1.2-4.69,4.53-4.69s4.53,1.93,4.53,4.69v3.7c0,2.77-1.2,4.69-4.53,4.69s-4.53-1.92-4.53-4.69Zm6.15-.47c0-1.45-.58-2.06-1.62-2.06s-1.61.61-1.61,2.06v4.64c0,1.46.57,2.07,1.61,2.07s1.62-.61,1.62-2.07Z"/><path class="cls-1" d="M252.35,79.61V92.22H249.6V91c-1.23.94-1.85,1.5-3.54,1.5a2.35,2.35,0,0,1-2.45-2.65V79.61h2.92v9.77c0,.63.41.92,1,.92a3.67,3.67,0,0,0,1.87-.8V79.61Z"/><path class="cls-1" d="M255.11,92.22V79.61h2.79v1.48H258a3.88,3.88,0,0,1,3.3-1.72h.6v2.75a7.09,7.09,0,0,0-1.87-.26,1.76,1.76,0,0,0-2,1.69v8.67Z"/><path class="cls-1" d="M269.43,92.22V75.3h3.22V92.22Z"/><path class="cls-1" d="M275.37,92.22V79.61h2.76v1.26c1.22-.93,1.85-1.5,3.54-1.5A2.36,2.36,0,0,1,284.12,82v10.2H281.2V82.44c0-.63-.42-.91-1-.91a3.55,3.55,0,0,0-1.87.8v9.89Z"/><path class="cls-1" d="M286.87,92.22V79.61h2.76v1.26c1.23-.93,1.85-1.5,3.54-1.5A2.35,2.35,0,0,1,295.62,82v10.2H292.7V82.44c0-.63-.41-.91-1-.91a3.58,3.58,0,0,0-1.87.8v9.89Z"/><path class="cls-1" d="M307.28,86.41h-6.14v1.82c0,1.46.57,2.07,1.61,2.07s1.61-.61,1.61-2.07V88h2.92c0,2.67-1.28,4.5-4.53,4.5s-4.53-1.92-4.53-4.69v-3.7c0-2.76,1.2-4.69,4.53-4.69s4.53,1.93,4.53,4.69Zm-2.92-2.16v-.66c0-1.45-.57-2.06-1.61-2.06s-1.61.61-1.61,2.06v.66Z"/><path class="cls-1" d="M309.88,92.22V79.61h2.78v1.48h.06a3.87,3.87,0,0,1,3.3-1.72h.6v2.75a7.15,7.15,0,0,0-1.87-.26,1.77,1.77,0,0,0-2,1.69v8.67Z"/><path class="cls-1" d="M329.94,80.94V79.63c0-1.43-.73-2-1.56-2-1.3,0-1.72.61-1.72,1.88v8.58c0,1.26.42,1.87,1.72,1.87s1.56-.61,1.56-1.71v-2h3.23v2c0,2.39-1.56,4.33-4.79,4.33s-4.95-1.94-4.95-4.33V79.4c0-2.39,1.57-4.34,4.95-4.34a4.4,4.4,0,0,1,4.79,4.64v1.24Z"/><path class="cls-1" d="M336.24,92.22V75.3h2.91v5.48a4.6,4.6,0,0,1,3.39-1.41A2.35,2.35,0,0,1,345,82v10.2h-2.91V82.44c0-.63-.42-.91-1-.91a3.58,3.58,0,0,0-1.88.8v9.89Z"/><path class="cls-1" d="M356.08,86.41h-6.14v1.82c0,1.46.57,2.07,1.61,2.07s1.62-.61,1.62-2.07V88h2.91c-.05,2.67-1.27,4.5-4.53,4.5S347,90.53,347,87.76v-3.7c0-2.76,1.2-4.69,4.53-4.69s4.53,1.93,4.53,4.69Zm-2.91-2.16v-.66c0-1.45-.58-2.06-1.62-2.06s-1.61.61-1.61,2.06v.66Z"/><path class="cls-1" d="M359.26,81.76h-1.72V79.61h1.72V78c0-2,1.19-3,3.25-3H364v2.16h-.84c-.7,0-1,.23-1,.84v1.55h1.67v2.15h-1.67V92.22h-2.91Z"/><path class="cls-1" d="M365.46,77.17a2.2,2.2,0,1,1,2.2,2.14A2.11,2.11,0,0,1,365.46,77.17Zm2.2-1.73a1.73,1.73,0,1,0,1.64,1.73A1.64,1.64,0,0,0,367.66,75.44Zm-.36,2.9h-.51V76h.88c.61,0,1,.17,1,.71s-.25.6-.65.62l.61,1h-.51l-.55-1h-.23Zm0-1.38h.44c.28,0,.38-.13.38-.31s-.16-.27-.4-.27h-.42Z"/><path class="cls-1" d="M44.35,46.56a4.13,4.13,0,0,0-2-4.19c-.75,1-7.44,11.27-7.88,12.29a4.19,4.19,0,0,0,.28,2.83c.06.17.21.46.28.65a.74.74,0,0,0,1.22.17c2-1.74,6.24-8.21,6.66-8.81A8.45,8.45,0,0,0,44.35,46.56Z"/><path class="cls-1" d="M38.2,25.81Z"/><path class="cls-1" d="M77.83,27.93c-8.17-.33-17.74-.55-27.69-.65a.8.8,0,0,1-.76-.56C46.2,17.24,42.93,8.1,40,.45a.81.81,0,0,0-1.45,0c-3,7.65-6.23,16.8-9.41,26.27a.83.83,0,0,1-.76.56c-10,.11-19.52.33-27.69.65a.81.81,0,0,0-.39,1.4C6.78,34.64,14.21,40.55,22.19,46.5a.81.81,0,0,1,.29.89C19.6,56.8,17,65.65,14.68,73.81a.79.79,0,0,0,1.22.78c6-4.1,12.24-8.22,18.8-12.69-1.06-2-2.06-3.94-3-6a27.08,27.08,0,0,1-2.08-5.09c-.49-2,.47-3.63,1.5-5.27,2.35-3.74,5.63-7.69,7.34-11.81a10.8,10.8,0,0,0,.85-5.55,4.42,4.42,0,0,0-.8-2c-.1-.14-.21-.27-.32-.4a.39.39,0,0,1-.07-.23.37.37,0,0,1,.37-.37.4.4,0,0,1,.22.06c4.1,2.75,6.73,8.81,5.5,13.26A9.33,9.33,0,0,1,43.13,41l-.48.84s4.87,3.13,6,5.9c1.34,3.31-1.44,6.89-2.54,8.52,0,0-1.63,2.34-3.58,4.76,7,4.82,13.67,9.21,20.07,13.57a.78.78,0,0,0,1.22-.78c-2.35-8.16-4.92-17-7.8-26.42a.83.83,0,0,1,.29-.89c8-6,15.41-11.85,21.92-17.17A.81.81,0,0,0,77.83,27.93Z"/><path class="cls-1" d="M136.14,60.16l.85-1.6c.6-1.12,1.19-2.24,1.78-3.37a1.61,1.61,0,0,0,.2-.74q0-13.2,0-26.4a1.9,1.9,0,0,0-.2-.81c-.58-1.11-1.18-2.22-1.78-3.32l-.85-1.57h16l-.83,1.54c-.61,1.12-1.21,2.23-1.79,3.35a1.58,1.58,0,0,0-.21.74q0,11.56,0,23.15v1.45a1,1,0,0,0,0,.17l.41,0h13.56a2.29,2.29,0,0,0,.92-.24c1.08-.54,2.14-1.1,3.26-1.69l1.78-.93L169,51.28c-.1.56-.2,1.08-.3,1.6l-1.3,6.62a1.77,1.77,0,0,0,0,.24v.42Z"/><path class="cls-1" d="M301.28,60.09l.22-.4c.18-.34.36-.67.53-1,.39-.75.76-1.47,1.2-2.16a6.41,6.41,0,0,0,.95-3.69c0-5.56,0-11.22,0-16.7v-6.4h0l-.42,0h-3.42c-1.18,0-2.36,0-3.55,0a2.1,2.1,0,0,0-.92.24c-1.11.56-2.2,1.13-3.33,1.73l-1.72.9,2-10.25h33l2,10.2L326.69,32l-.94-.47c-.37-.19-.74-.41-1.1-.62a9.15,9.15,0,0,0-2.4-1.13,6.57,6.57,0,0,0-1.58-.16c-.39,0-.78,0-1.17,0s-.81,0-1.21,0h-3.9v4q0,10.31,0,20.63a1.89,1.89,0,0,0,.22.86c.49.93,1,1.85,1.49,2.77l.67,1.22.17.36.26.57Z"/><path class="cls-1" d="M403,63.39l-.85-.08c-.58-.05-1.16-.1-1.74-.18a15.37,15.37,0,0,1-9.32-4.65,25,25,0,0,1-5.59-10.14c-.13-.39-.25-.45-.59-.45-.7,0-1.37,0-2,0h-2.37v2c0,1.51,0,3,0,4.52a2.21,2.21,0,0,0,.23.86c.48.92,1,1.83,1.45,2.74l.68,1.27c.05.1.09.21.14.32l.25.56H367.44l.21-.4c.14-.26.26-.52.39-.78a16.22,16.22,0,0,1,.9-1.65,8.83,8.83,0,0,0,1.34-5.25c-.06-5,0-10,0-15.32,0-2.8,0-5.63,0-8.49a2.72,2.72,0,0,0-.29-1.16C369.4,26,368.83,25,368.26,24l-.85-1.58h13.92c7.05,0,15.83,0,20.81,6.36,2.79,3.58,3.26,7.31,1.39,11.1-1.24,2.52-3.35,4.42-6.65,6l-.53.24a2.27,2.27,0,0,0-.35.17,2.85,2.85,0,0,0,.07.35c0,.17.08.39.12.69h0s0,0,0,.08a22.73,22.73,0,0,0,5,9A19,19,0,0,0,408,61.55c.26.12.54.22.81.32l1.21.48-.84.2a32.75,32.75,0,0,1-3.38.6c-.56.07-1.13.12-1.69.17l-.77.07Zm-22.47-21.9c2.48,0,4.94-.16,7.31-.31a9.3,9.3,0,0,0,3.49-1,5.61,5.61,0,0,0,3.12-3.79,5.32,5.32,0,0,0-1.15-4.53A7.21,7.21,0,0,0,388,29.12c-1.77-.13-3.59-.13-5.35-.13h-2.13Z"/><path class="cls-1" d="M211.29,60.22l.82-1.55q.91-1.7,1.8-3.42a1.76,1.76,0,0,0,.2-.8q0-13.14,0-26.27a2.35,2.35,0,0,0-.26-1c-.54-1.05-1.1-2.09-1.68-3.15l-.81-1.65,23,0h0a4,4,0,0,0,2.25-.54,4.47,4.47,0,0,1,.49-.24l.5-.23,3.75,8.37H224.45v7h7.89a2,2,0,0,0,.86-.22c.81-.41,1.61-.85,2.45-1.3l1.4-.75V47.44s-1.05-.56-1.36-.74c-.77-.41-1.48-.81-2.23-1.17a3.61,3.61,0,0,0-1.44-.37h-7.56v7.66l.36,0h13.63a2,2,0,0,0,.81-.2l3.33-1.74,1.76-.92-.25,1.37c-.1.56-.19,1.08-.29,1.61l-1.31,6.63a1.55,1.55,0,0,0,0,.23v.42Z"/><path class="cls-1" d="M354.69,60c-.07-.12-4.87-11.15-5.52-12.64H337.44l-2.31,6.07-.24.62c-.21.55-.43,1.11-.6,1.67a1.25,1.25,0,0,0,.07.81c.37.76.79,1.5,1.21,2.27l.73,1.3H322.66l.4-.45.33-.39c.24-.28.46-.55.7-.79a12.22,12.22,0,0,0,3.24-5.05c.46-1.42,4.46-11.76,7.67-20.07,1.36-3.51,2.53-6.55,3.16-8.18a.87.87,0,0,0,0-.53c-.2-.47-.43-.93-.66-1.39l-.46-.93h16.63l-.9,1.29c-.63.91-1.27,1.81-1.89,2.73a.5.5,0,0,0,0,.38q4.62,10.68,9.06,20.84l1.61,3.71.1.22a4.42,4.42,0,0,1,.24.6,16.06,16.06,0,0,0,3.43,5.43c.31.38,2,2.62,2,2.62H354.77Zm-8.07-18.5c-1.31-3-2.38-5.46-2.77-6.37l-.8-1.84L342.9,33c-.66,1.76-1.92,5.08-3.24,8.54Z"/><path class="cls-1" d="M271.35,64.18a33.31,33.31,0,0,1-14.55-3c-.17-.08-.35-.19-.52-.29a3,3,0,0,0-1.44-.54h-.2a7.88,7.88,0,0,0-1.31.35l-.11,0a10.46,10.46,0,0,0-2.58,1.34q-.36.26-.78.51l-.48.29c-.29.17-.59.34-.84.52l-.22.16V63l-.17-16.41.25.27c.29.32.53.6.73.85a8.09,8.09,0,0,0,.82.88l.48.42c.63.55,1.28,1.12,2,1.62a30.1,30.1,0,0,0,5.86,3.29,33.41,33.41,0,0,0,13.24,2.84c4.64,0,7.33-1.49,8-4.43a3.31,3.31,0,0,0-1.63-4,10.39,10.39,0,0,0-2.33-.93A50.39,50.39,0,0,0,268,46.14h-.1c-1.05-.12-2.1-.24-3.14-.39a38.34,38.34,0,0,1-9.58-2.28,12.58,12.58,0,0,1-6.36-5.22,12.53,12.53,0,0,1-1.59-5.63,12.31,12.31,0,0,1,2.17-8.2c2-2.88,5.1-4.81,9.37-5.9a31.33,31.33,0,0,1,7.85-.91c.81,0,1.61,0,2.42.07l.75,0c1.68.09,3.43.18,5.13.39A45.13,45.13,0,0,1,281,19.51a5.93,5.93,0,0,0,1.51.29,1.83,1.83,0,0,0,1.32-.6l.51-.45a36.26,36.26,0,0,1,2.89-2.39l.22-.16,0,17.22-.19-.07a1.31,1.31,0,0,1-.53-.39l-.11-.11-.84-.84-.61-.62c-3.88-3.85-10-6.15-16.42-6.15a43.7,43.7,0,0,0-5.24.35,7.08,7.08,0,0,0-3.81,1.51,3.54,3.54,0,0,0-1.31,3.25,3.51,3.51,0,0,0,2.19,2.71,13.69,13.69,0,0,0,3.22,1c2.06.31,4.16.58,6.19.85l.11,0c1.62.21,3.24.42,4.86.65a30.25,30.25,0,0,1,9.43,2.67A11.78,11.78,0,0,1,290,43.66a14.58,14.58,0,0,1,1,9,11.68,11.68,0,0,1-4.48,7.4,19.77,19.77,0,0,1-9.77,3.73A37.47,37.47,0,0,1,271.35,64.18Z"/><path class="cls-1" d="M135.35,48.85c0-5.79-4.11-10.81-10.16-13.42a9.25,9.25,0,0,0,3.4-7,8.83,8.83,0,0,0-1.4-4.74,11.32,11.32,0,0,0-3.53-3.46A17.23,17.23,0,0,0,118.27,18,31.26,31.26,0,0,0,111,17.4H87.14a1.43,1.43,0,0,0-.39.08l0,0,.63,1.14c.87,1.57,1.71,3.09,2.53,4.62a1.62,1.62,0,0,1,.12.79v.1c0,11.08,0,22.15,0,33.31a1.56,1.56,0,0,1-.11.74c-.8,1.5-1.62,3-2.43,4.49l-.74,1.35,0,0a1.5,1.5,0,0,0,.39.08h23A77.1,77.1,0,0,0,118.5,64a22.45,22.45,0,0,0,9.63-3.27,16.14,16.14,0,0,0,6-6.54A12.33,12.33,0,0,0,135.35,48.85Zm-19.59-7.19a9.38,9.38,0,0,1,6.57,3,6.61,6.61,0,0,1,.06,8.84,9.54,9.54,0,0,1-7.09,3.18c-1.58,0-3.27,0-5.31,0h-7.91v-15l.19-.06a.72.72,0,0,1,.19,0v0h4.84C110,41.54,112.91,41.54,115.76,41.66ZM102.07,24.84l.31,0,.37,0h9.47a6.64,6.64,0,0,1,3.76,1A4.27,4.27,0,0,1,118.15,30a4.19,4.19,0,0,1-3.33,3.73,10.49,10.49,0,0,1-2.7.41c-1.33,0-2.65,0-4,0h-5.5l-.27,0-.3,0Z"/><path class="cls-1" d="M192.92,22.32l.25.54c0,.09.08.16.11.24l.63,1.16c.56,1,1.12,2.08,1.66,3.12a1.19,1.19,0,0,1,.17.56v1.23c0,6.27,0,13.1,0,19.29a4.46,4.46,0,0,1-2.5,4.1,8.4,8.4,0,0,1-4.1,1,10.61,10.61,0,0,1-1.57-.13c-3.61-.59-5.4-2.6-5.31-6,.13-5.17.13-11.06,0-16.16a10.62,10.62,0,0,1,1.72-6.8,9.22,9.22,0,0,0,.69-1.24c.09-.19.19-.4.3-.6l.21-.41H169.21v.47l.65,1.16c.68,1.25,1.37,2.49,2,3.73a.94.94,0,0,1,0,.39V33.6c0,4.8,0,9.77,0,14.36,0,.34,0,1.36,0,1.55,0,6.31,7.65,11.43,17.1,11.43s17.1-5.12,17.1-11.43c0-.12,0-1.11,0-1.5,0-2.4,0-4.93,0-7.48,0-3.4,0-6.91,0-10.15a8.15,8.15,0,0,1,1.23-5,13,13,0,0,0,.82-1.51c.11-.21.21-.43.32-.64a3.54,3.54,0,0,0,.16-.34l.25-.55Z"/><path class="cls-1" d="M405.23,26.34a4,4,0,1,1,4,3.91A3.86,3.86,0,0,1,405.23,26.34Zm4-3a2.84,2.84,0,0,0-2.84,3,2.84,2.84,0,1,0,5.67,0A2.85,2.85,0,0,0,409.27,23.35Zm-.67,5.13h-.93V24.19h1.62c1.12,0,1.76.31,1.76,1.29A1,1,0,0,1,410,26.62l1,1.86h-1L409,26.72h-.44Zm0-2.52h.81c.52,0,.67-.14.67-.57s-.19-.44-.82-.44h-.66Z"/></g></g></svg>