<?xml version="1.0" encoding="utf-8"?>
<!-- Generator: Adobe Illustrator 26.0.2, SVG Export Plug-In . SVG Version: 6.00 Build 0)  -->
<svg version="1.1" id="Layer_1" xmlns="http://www.w3.org/2000/svg" xmlns:xlink="http://www.w3.org/1999/xlink" x="0px" y="0px"
	 viewBox="0 0 288 98" style="enable-background:new 0 0 288 98;" xml:space="preserve">
<style type="text/css">
	.st0{fill:#231F20;}
	.st1{fill:#2286C8;}
	.st2{fill:#00AEEF;}
	.st3{fill:#010101;}
</style>
<g>
	<g>
		<path class="st0" d="M54.5,67.9H38.2c-5.2,0-9.6-1.7-13-5.1C21.8,59.4,20,55.2,20,50c0-5.1,1.7-9.3,5.1-12.4
			c3.4-3.1,7.7-4.7,13-4.7h16.3V39H38.2c-3.4,0-6.3,1.1-8.5,3.2c-2.2,2.2-3.3,4.9-3.3,8.3c0,3.3,1.1,6.1,3.3,8.1
			c2.2,2.1,5.1,3.1,8.5,3.1h16.3V67.9z"/>
		<path class="st0" d="M106.9,67.9l-8.1,0l-6.1-9.4H75.7l3.8-5.8h9.5L82.8,43L66.6,67.8h-8.1l19.6-30.3c0.5-0.8,1.2-1.5,2.1-2.2
			c1.1-0.8,2-1.1,2.8-1.1c0.9,0,1.9,0.4,2.8,1.1c0.8,0.6,1.5,1.4,2.1,2.2L106.9,67.9z"/>
		<path class="st0" d="M146.6,46.5c0,3.7-1.4,6.6-4.3,8.9c-2.7,2.1-6,3.1-10.1,3.1h-11.9v-5.8h12.9c2.1,0,3.8-0.6,5.2-1.7
			c1.4-1.1,2.1-2.7,2.1-4.6c0-1.9-0.7-3.4-2.1-4.5c-1.4-1.1-3.1-1.7-5.2-1.7h-16.6v27.7h-6.3V34.4h21.8c4,0,7.4,1.1,10.1,3.2
			C145.2,39.8,146.6,42.8,146.6,46.5z"/>
		<path class="st0" d="M159.4,67.9h-6.3V34.6h6.3V67.9z"/>
		<path class="st0" d="M195.8,40.2h-12.2v27.7h-6.2V40.2h-12.2v-5.8h30.6V40.2z"/>
		<path class="st0" d="M236.8,67.9l-8.1,0l-6.1-9.4h-17.1l3.8-5.8h9.5l-6.3-9.7l-16.2,24.8h-8.1L208,37.6c0.5-0.8,1.2-1.5,2.1-2.2
			c1.1-0.8,2-1.1,2.8-1.1c0.9,0,1.9,0.4,2.8,1.1c0.8,0.6,1.5,1.4,2.1,2.2L236.8,67.9z"/>
		<path class="st0" d="M266.4,67.9h-27V34.4h6.3v27.7h20.8V67.9z"/>
	</g>
	<g>
		<path class="st1" d="M158.1,16.4c0,0-0.6,2.8,2.7,5.9c0,0,2.8,3.5-0.5,7.3c0,0-1,1.6-3.1,2.3c0,0,2.7-2.6,1.4-6.1
			c0,0-0.3-0.9-1.2-2.4C157.3,23.5,154.4,19.9,158.1,16.4z"/>
		<path class="st2" d="M157.3,29.3c0,0,0.8-2.6-1.3-4.9c0,0-3.7-3.4-0.9-6.4c0,0,5.2-4.6,0-9.1c0,0,0.6,3.1-1.8,5.1c0,0-4,4-1,8.1
			c0,0,1,1.8,2.9,3.2C155,25.4,156.7,26.5,157.3,29.3z"/>
		<path class="st1" d="M151.2,22.9c0,0,0.4,2.2,2.4,3.5c0,0,4.7,3.2,2.8,5.8c0,0-1,0.8-1.9,1.5c0,0,0-1.7-1.5-2.6
			c0,0-3.8-2.3-2.9-5.5C150.2,25.6,150.5,23.9,151.2,22.9z"/>
	</g>
	<g>
		<path class="st3" d="M22.9,74.9h5.8v0.9h-4.7v3.5h4.6v0.9h-4.6v3.6h4.7v0.9h-5.8V74.9z"/>
		<path class="st3" d="M35.8,79.6l-3.4-4.8h1.2l2.8,3.9l2.8-3.9h1.2l-3.4,4.8l3.6,5h-1.3l-3-4.2l-3,4.2h-1.2L35.8,79.6z"/>
		<path class="st3" d="M45.8,75.7h-2.4v-0.9h5.9v0.9h-2.4v8.9h-1.1V75.7z"/>
		<path class="st3" d="M53,74.9h2.7c1.4,0,2.1,0.2,2.6,0.4c1.2,0.5,1.9,1.6,1.9,2.8c0,1.4-1.1,2.8-3.1,3l3,3.6h-1.3L55,80.2
			c1.3,0,1.8,0,2.3-0.1c1.2-0.3,1.7-1.2,1.7-2.1c0-0.8-0.5-1.6-1.2-1.9c-0.6-0.3-1.2-0.4-2.1-0.4H54v8.9H53V74.9z"/>
		<path class="st3" d="M67.8,74.9H69l4.5,9.8h-1.2l-1.5-3.3H66l-1.5,3.3h-1.1L67.8,74.9z M66.4,80.4h4.1l-2-4.5L66.4,80.4z"/>
		<path class="st3" d="M81.8,74.7c3,0,5.6,2.2,5.6,5c0,2.9-2.6,5-5.6,5c-3,0-5.6-2.3-5.6-5C76.2,76.7,78.9,74.7,81.8,74.7z
			 M81.8,83.9c2.4,0,4.5-1.8,4.5-4.2c0-2.3-2-4.2-4.5-4.2c-2.4,0-4.5,1.8-4.5,4.2C77.2,82,79.3,83.9,81.8,83.9z"/>
		<path class="st3" d="M91.5,74.9h2.7c1.4,0,2.1,0.2,2.6,0.4c1.2,0.5,1.9,1.6,1.9,2.8c0,1.4-1.1,2.8-3.1,3l3,3.6h-1.3l-3.6-4.4
			c1.3,0,1.8,0,2.3-0.1c1.2-0.3,1.7-1.2,1.7-2.1c0-0.8-0.5-1.6-1.2-1.9c-0.6-0.3-1.2-0.4-2.1-0.4h-1.8v8.9h-1.1V74.9z"/>
		<path class="st3" d="M102.8,74.9h3.1c1.3,0,2.6,0.3,3.4,0.8c1.9,1.1,2.4,2.9,2.4,4.1c0,0.9-0.4,2.9-2.4,4
			c-0.9,0.5-2.1,0.8-3.4,0.8h-3.1V74.9z M103.8,83.7h1.5c1,0,2.4,0,3.6-0.8c0.6-0.5,1.7-1.5,1.7-3.2c0-1.3-0.7-2.5-1.8-3.2
			c-0.9-0.6-1.9-0.8-3.5-0.8h-1.5V83.7z"/>
		<path class="st3" d="M116,74.9h1.1v9.8H116V74.9z"/>
		<path class="st3" d="M121.8,74.9h1.4l5.9,8.1h0v-8.1h1.1v9.8h-1.1l-6.3-8.6h0v8.6h-1.1V74.9z"/>
		<path class="st3" d="M138.5,74.9h1.2l4.5,9.8H143l-1.5-3.3h-4.9l-1.5,3.3H134L138.5,74.9z M137,80.4h4.1l-2-4.5L137,80.4z"/>
		<path class="st3" d="M147.9,74.9h2.7c1.4,0,2.1,0.2,2.6,0.4c1.2,0.5,1.9,1.6,1.9,2.8c0,1.4-1.1,2.8-3.1,3l3,3.6h-1.3l-3.6-4.4
			c1.3,0,1.8,0,2.3-0.1c1.2-0.3,1.7-1.2,1.7-2.1c0-0.8-0.5-1.6-1.2-1.9c-0.6-0.3-1.2-0.4-2.1-0.4H149v8.9h-1.1V74.9z"/>
		<path class="st3" d="M161.6,81.4l-3.7-6.5h1.2l3,5.5l3.1-5.5h1.2l-3.7,6.5v3.3h-1.1V81.4z"/>
		<path class="st3" d="M186.5,82.1c-1.1,1.9-3.2,2.7-4.9,2.7c-3,0-5.5-2.1-5.5-5c0-2.9,2.5-5,5.5-5c2.7,0,4.4,1.8,4.8,2.7h-1.2
			c-1.2-1.6-3-1.8-3.7-1.8c-2.5,0-4.4,2-4.4,4.2c0,2.3,2.2,4.1,4.4,4.1c0.5,0,2.3-0.1,3.7-1.8H186.5z"/>
		<path class="st3" d="M195.8,74.7c3,0,5.6,2.2,5.6,5c0,2.9-2.6,5-5.6,5c-3,0-5.6-2.3-5.6-5C190.2,76.7,193,74.7,195.8,74.7z
			 M195.8,83.9c2.4,0,4.5-1.8,4.5-4.2c0-2.3-2-4.2-4.5-4.2c-2.4,0-4.5,1.8-4.5,4.2C191.3,82,193.4,83.9,195.8,83.9z"/>
		<path class="st3" d="M210.8,74.7c3,0,5.6,2.2,5.6,5c0,2.9-2.6,5-5.6,5c-3,0-5.6-2.3-5.6-5C205.2,76.7,208,74.7,210.8,74.7z
			 M210.8,83.9c2.4,0,4.5-1.8,4.5-4.2c0-2.3-2-4.2-4.5-4.2c-2.4,0-4.5,1.8-4.5,4.2C206.2,82,208.3,83.9,210.8,83.9z"/>
		<path class="st3" d="M220.7,74.9h1.1v5.6h0l4.8-5.6h1.4l-4.2,4.8l4.2,5h-1.3l-3.5-4.2l-1.4,1.6v2.7h-1.1V74.9z"/>
		<path class="st3" d="M231.6,74.9h1.1v9.8h-1.1V74.9z"/>
		<path class="st3" d="M237.4,74.9h1.4l5.9,8.1h0v-8.1h1.1v9.8h-1.1l-6.3-8.6h0v8.6h-1.1V74.9z"/>
		<path class="st3" d="M261.2,80.1c-0.2,2.9-3,4.7-5.6,4.7c-3.1,0-5.7-2.4-5.7-5c0-2.5,2.3-5,5.6-5c2.8,0,4.6,1.8,5,2.8h-1.2
			c-0.6-1-2-1.9-3.7-1.9c-2.7,0-4.6,2-4.6,4.2c0,2.2,1.9,4.2,4.6,4.2c2.2,0,3.9-1.5,4.3-2.9h-5.9v-0.9H261.2z"/>
	</g>
	<g>
		<path class="st3" d="M262.9,74.9h-0.5v-0.2h1.3v0.2h-0.5v1.9h-0.3V74.9z M264,74.7h0.4l0.8,1.8l0.8-1.8h0.4v2.2h-0.3V75h0
			l-0.8,1.8H265l-0.8-1.8h0v1.8H264V74.7z"/>
	</g>
</g>
</svg>
