<?xml version="1.0" encoding="UTF-8" standalone="no"?>
<!-- Created with Inkscape (http://www.inkscape.org/) -->

<svg
   xmlns:dc="http://purl.org/dc/elements/1.1/"
   xmlns:cc="http://creativecommons.org/ns#"
   xmlns:rdf="http://www.w3.org/1999/02/22-rdf-syntax-ns#"
   xmlns:svg="http://www.w3.org/2000/svg"
   xmlns="http://www.w3.org/2000/svg"
   xmlns:sodipodi="http://sodipodi.sourceforge.net/DTD/sodipodi-0.dtd"
   xmlns:inkscape="http://www.inkscape.org/namespaces/inkscape"
   width="144.00002"
   height="35.215118"
   viewBox="0 0 38.100002 9.3173329"
   version="1.1"
   id="svg849"
   inkscape:version="0.92.0 r15299"
   sodipodi:docname="jennair.svg">
  <defs
     id="defs843" />
  <sodipodi:namedview
     id="base"
     pagecolor="#ffffff"
     bordercolor="#666666"
     borderopacity="1.0"
     inkscape:pageopacity="0.0"
     inkscape:pageshadow="2"
     inkscape:zoom="6.2727267"
     inkscape:cx="71.500006"
     inkscape:cy="17.107559"
     inkscape:document-units="mm"
     inkscape:current-layer="layer1"
     showgrid="false"
     fit-margin-top="0"
     fit-margin-left="0"
     fit-margin-right="0"
     fit-margin-bottom="0"
     units="px"
     inkscape:window-width="1280"
     inkscape:window-height="744"
     inkscape:window-x="-4"
     inkscape:window-y="-4"
     inkscape:window-maximized="1" />
  <metadata
     id="metadata846">
    <rdf:RDF>
      <cc:Work
         rdf:about="">
        <dc:format>image/svg+xml</dc:format>
        <dc:type
           rdf:resource="http://purl.org/dc/dcmitype/StillImage" />
        <dc:title></dc:title>
      </cc:Work>
    </rdf:RDF>
  </metadata>
  <g
     inkscape:label="Layer 1"
     inkscape:groupmode="layer"
     id="layer1"
     transform="translate(6.4445,-144.04238)">
    <g
       transform="translate(-288.74285,-90.864779)"
       id="g823">
      <path
         id="path768"
         d="m 282.43067,241.66411 2.98251,-2.84413 v 3.72107 c 0,0.0789 0.15804,0.14285 0.3529,0.14285 0.19492,0 0.35415,-0.0639 0.35415,-0.14285 v -7.5016 l 2.98651,2.84538 v 5.90653 c 0,0.16457 -0.13219,0.29808 -0.29612,0.30062 l -3.2e-4,2.2e-4 h -6.07884 c -0.16615,0 -0.30082,-0.1347 -0.30082,-0.30081 v -2.12728 z"
         inkscape:connector-curvature="0"
         style="fill:#000000;stroke-width:0.26458332" />
      <path
         id="path770"
         d="m 299.13781,238.87514 h -2.66952 c -0.0117,0 -0.0213,0.01 -0.0213,0.0213 v 3.72293 c 0,0.0117 0.01,0.0213 0.0213,0.0213 h 2.38379 c 0.008,0 0.0152,-0.004 0.0189,-0.0115 l 0.28567,-0.55732 c 0.007,-0.0142 -0.003,-0.031 -0.0188,-0.031 h -1.99343 v -0.99767 h 0.90533 c 0.008,0 0.0156,-0.005 0.0191,-0.012 l 0.2884,-0.56266 c 0.007,-0.0141 -0.004,-0.0304 -0.0191,-0.0304 h -1.1937 v -0.96318 h 1.70384 c 0.008,0 0.0152,-0.004 0.0189,-0.0114 l 0.2895,-0.55732 c 0.007,-0.0141 -0.003,-0.031 -0.0188,-0.031 z"
         inkscape:connector-curvature="0"
         style="fill:#000000;stroke-width:0.26458332" />
      <path
         id="path772"
         d="m 307.63154,241.13667 h -3.7e-4 l -2.40435,-2.32135 c -0.0263,-0.0281 -0.0735,-0.009 -0.0735,0.029 v 3.77505 c 0,0.0117 0.01,0.0212 0.0212,0.0212 h 0.64948 c 0.0117,0 0.0212,-0.01 0.0212,-0.0212 l 3.5e-4,-2.23758 2.40437,2.32502 c 0.0264,0.0281 0.0735,0.009 0.0735,-0.0291 v -3.22723 c 0,-0.006 -0.002,-0.0116 -0.007,-0.0156 l -0.64945,-0.62743 c -0.0136,-0.0126 -0.0357,-0.003 -0.0357,0.0155 v 2.31357 z"
         inkscape:connector-curvature="0"
         style="fill:#000000;stroke-width:0.26458332" />
      <path
         id="path774"
         d="m 310.17617,242.62818 c -0.003,0.008 -0.0111,0.0124 -0.0193,0.0124 h -0.80196 c -0.0153,0 -0.0257,-0.016 -0.0193,-0.0301 l 1.9685,-3.78394 c 0.0151,-0.0329 0.0619,-0.033 0.0773,-1.9e-4 l 1.96903,3.78402 c 0.007,0.0141 -0.004,0.0302 -0.0193,0.0302 h -0.78158 c -0.008,0 -0.0159,-0.005 -0.0193,-0.0125 0,0 -1.17607,-2.34645 -1.17898,-2.34645 z"
         inkscape:connector-curvature="0"
         style="fill:#000000;stroke-width:0.26458332" />
      <path
         id="path776"
         d="m 319.51411,242.6068 -1.35705,-1.27225 c 0.41672,-0.2304 0.69559,-0.67765 0.68051,-1.18682 -0.0214,-0.71379 -0.63077,-1.27259 -1.35043,-1.27259 h -1.47982 c -0.0169,0 -0.0272,0.019 -0.0177,0.0331 l 0.69347,0.65675 c 0.004,0.006 0.0106,0.01 0.0177,0.01 h 0.79666 c 0.32967,0 0.61383,0.25562 0.62997,0.58227 0.0172,0.34433 -0.25612,0.63048 -0.59769,0.63839 h -0.88371 c -0.0175,0 -0.0275,0.0196 -0.0175,0.0338 l 1.8886,1.80316 c 0.004,0.005 0.0103,0.009 0.0172,0.009 h 0.96229 c 0.0175,-8e-5 0.0275,-0.0197 0.0175,-0.0338 z"
         inkscape:connector-curvature="0"
         style="fill:#000000;stroke-width:0.26458332" />
      <path
         id="path778"
         d="m 315.08657,238.82299 v 3.7963 c 0,0.0118 -0.01,0.0212 -0.0214,0.0212 h -0.67442 c -0.0116,0 -0.0212,-0.009 -0.0212,-0.0212 v -3.15307 c 0,-0.006 0.003,-0.0116 0.007,-0.0156 l 0.67442,-0.64328 c 0.0138,-0.0124 0.0357,-0.003 0.0357,0.0157 z"
         inkscape:connector-curvature="0"
         style="fill:#000000;stroke-width:0.26458332" />
      <path
         id="path780"
         d="m 302.96916,241.13661 -2.40469,-2.32134 c -0.0264,-0.0281 -0.0735,-0.009 -0.0735,0.0291 v 3.77505 c 0,0.0117 0.01,0.0212 0.0212,0.0212 h 0.64949 c 0.0118,0 0.0212,-0.01 0.0212,-0.0212 l 4e-4,-2.23761 2.40435,2.32508 c 0.0263,0.0281 0.0734,0.009 0.0734,-0.0291 v -3.22726 c 0,-0.006 -0.002,-0.0115 -0.007,-0.0156 l -0.64947,-0.62746 c -0.0136,-0.0126 -0.0357,-0.003 -0.0357,0.0155 v 2.31359 z"
         inkscape:connector-curvature="0"
         style="fill:#000000;stroke-width:0.26458332" />
      <path
         id="path782"
         d="m 292.03282,241.70475 c 0,0.51314 0.42479,0.92742 0.93766,0.93165 l -6e-5,0.001 h 0.008 1.03222 0.008 l -8e-5,-0.001 c 0.51287,-0.004 0.93769,-0.41851 0.93769,-0.93165 v -2.88234 c 0,-0.0184 -0.0288,-0.0274 -0.0424,-0.0148 l -0.66487,0.63055 c -0.004,0.004 -0.01,0.01 -0.01,0.0156 v 2.10291 c 0,0.25789 -0.20352,0.47384 -0.4617,0.47384 h -0.5657 c -0.25818,0 -0.4617,-0.20198 -0.4617,-0.47384 v -0.49554 c 0,-0.0184 -0.0293,-0.0284 -0.0429,-0.016 l -0.66326,0.62844 c -0.004,0.004 -0.0108,0.009 -0.0108,0.0154 v 0.0158 z"
         inkscape:connector-curvature="0"
         style="fill:#000000;stroke-width:0.26458332" />
      <path
         id="path784"
         d="m 320.26606,239.23918 c 0,0.20659 -0.16193,0.36857 -0.3728,0.36857 -0.20876,0 -0.37518,-0.16198 -0.37518,-0.36857 0,-0.2019 0.16642,-0.36404 0.37518,-0.36404 0.21087,-3e-5 0.3728,0.16211 0.3728,0.36404 z m -0.65485,0 c 0,0.16216 0.12012,0.29083 0.28416,0.29083 0.15981,0 0.27755,-0.12867 0.27755,-0.28853 0,-0.16213 -0.11774,-0.29297 -0.27966,-0.29297 -0.16193,-3e-5 -0.28205,0.13084 -0.28205,0.29067 z m 0.22437,0.19103 h -0.0844 v -0.36401 c 0.0331,-0.007 0.0799,-0.0113 0.1397,-0.0113 0.0691,0 0.0997,0.0113 0.12673,0.0268 0.0199,0.0154 0.0352,0.0442 0.0352,0.0799 0,0.0399 -0.031,0.071 -0.0751,0.0843 v 0.004 c 0.0352,0.0134 0.0553,0.0399 0.0664,0.0887 0.0111,0.0556 0.0177,0.0778 0.0267,0.0911 h -0.091 c -0.0111,-0.0133 -0.0177,-0.0466 -0.0288,-0.0889 -0.007,-0.04 -0.0288,-0.0577 -0.0754,-0.0577 h -0.04 z m 0.002,-0.2064 h 0.04 c 0.0466,0 0.0844,-0.0155 0.0844,-0.0533 0,-0.0333 -0.0243,-0.0555 -0.0778,-0.0555 -0.0222,0 -0.0378,0.002 -0.0466,0.004 z"
         inkscape:connector-curvature="0"
         style="fill:#000000;stroke-width:0.26458332" />
    </g>
  </g>
</svg>
