<svg width="142" height="50" viewBox="0 0 142 50" fill="none" xmlns="http://www.w3.org/2000/svg">
<g clip-path="url(#clip0_1303_4269)">
<path d="M77.0379 0C68.1908 0 59.8088 0.644696 52.1885 1.82171C57.479 1.37929 63.0183 1.14507 68.7377 1.14507C108.044 1.14507 138.833 12.1771 138.833 26.2598C138.833 33.6366 130.386 40.1758 116.691 44.7312C132.172 40.2231 142 33.0747 142 24.8864C142 10.9314 113.465 0 77.0379 0Z" fill="#1D3461"/>
<path d="M68.7392 2.51855C30.7756 2.51855 0 13.1472 0 26.2587C0 26.5083 0.0128524 26.7567 0.0350519 27.004C1.13919 15.0375 29.5733 5.4534 64.4885 5.4534C99.4037 5.4534 128.977 15.4255 128.977 27.7268C128.977 40.028 101.228 49.6062 66.58 49.9883C67.2962 49.9954 68.0159 50.0001 68.738 50.0001C106.702 50.0001 137.477 39.3715 137.477 26.2587C137.477 13.146 106.702 2.51855 68.7392 2.51855Z" fill="#1B1D16" fill-opacity="0.3"/>
<path d="M29.0325 14.9475H23.1846L17.8345 21.437C17.6838 21.6287 17.5296 21.8215 17.373 22.0155C17.1709 22.2651 16.9664 22.5194 16.762 22.7856L18.2283 14.9475H13.6587L9.9502 34.7177H14.5198L15.756 28.1667L17.4092 26.5851L20.5067 34.7166H25.5086L21.0289 23.5828L29.0325 14.9463V14.9475Z" fill="#1B1D16" fill-opacity="0.3"/>
<path d="M58.307 13.9219L54.373 34.7177H58.9976L62.9327 13.9219H58.307Z" fill="#1B1D16" fill-opacity="0.3"/>
<path d="M78.4524 14.9475L74.8573 22.4023C74.2427 23.713 73.3968 25.5619 72.6899 27.4357C72.6432 26.2326 72.559 25.0379 72.4819 23.9508C72.4457 23.4492 72.4118 22.9654 72.3826 22.5017L71.7704 14.9475H65.8606L60.9639 34.7178H65.2612L67.1996 26.5781C67.5127 25.2153 67.8539 23.5498 68.2161 21.7872C68.2664 21.54 68.3178 21.2927 68.3692 21.0455C68.4743 23.1547 68.5841 24.9397 68.6987 26.3675L69.3962 34.4043H72.9797L76.9405 26.3841C77.6696 24.9089 78.505 23.0896 79.3579 21.1295C79.0635 22.7868 78.7773 24.5517 78.491 26.4716L77.2899 34.7178H81.8034L84.4393 14.9475H78.4536H78.4524Z" fill="#1D3461"/>
<path d="M92.2731 19.9041C87.4278 19.9041 83.7754 23.8113 83.7754 28.9913C83.7754 32.604 86.229 35.0313 89.8814 35.0313C94.8051 35.0313 98.3792 31.1975 98.3792 25.9157C98.3792 22.3764 95.8683 19.9041 92.2731 19.9041ZM90.4446 31.3264C89.247 31.3264 88.5319 30.4215 88.5319 28.9061V28.9026C88.5132 27.4582 89.053 25.4236 90.1221 24.327C90.6058 23.8314 91.1491 23.5794 91.7392 23.5794C93.4404 23.5794 93.6238 25.232 93.6238 25.9429C93.6238 28.1431 92.4916 31.3264 90.4458 31.3264H90.4446Z" fill="#1D3461"/>
<path d="M108.96 19.9336C108.691 19.9041 108.426 19.9041 108.169 19.9041C106.594 19.9041 105.139 20.7711 104.07 22.3172C104.124 21.7163 104.177 21.1225 104.23 20.5286L104.258 20.2175H100.182L100.153 20.4695C100.116 20.7759 100.078 21.158 100.036 21.5909C99.9132 22.8318 99.7438 24.5317 99.4528 26.0896L97.8428 34.7179H102.468L103.469 29.3001C104.063 26.0896 105.419 24.4631 107.496 24.4631C107.708 24.4631 107.926 24.4631 108.104 24.4891L108.368 24.5269L109.269 19.9679L108.962 19.9336H108.96Z" fill="#1D3461"/>
<path d="M122.097 24.3483C122.097 21.6903 120.062 19.9041 117.032 19.9041C111.836 19.9041 108.73 24.4524 108.73 28.8494C108.73 32.7601 111.008 35.0029 114.978 35.0029C116.131 35.0029 118.345 34.8586 120.226 33.8898L120.398 33.8011L120.059 30.2357L119.694 30.4156C118.527 30.9905 117.307 31.2696 115.963 31.2696C114.855 31.2696 114.019 30.9337 113.548 30.3067C113.367 30.05 113.249 29.6668 113.202 29.3403C117.002 29.4018 119.523 28.7701 120.9 27.4109C121.695 26.6266 122.098 25.5963 122.098 24.3483H122.097ZM116.525 23.4658C117.27 23.4658 117.734 23.8148 117.734 24.3767C117.734 24.6381 117.652 24.8404 117.478 25.0167C116.979 25.517 115.729 25.7655 113.659 25.7726C113.979 24.7872 114.846 23.4658 116.525 23.4658Z" fill="#1D3461"/>
<path d="M38.0888 28.0059C38.4112 28.938 38.7232 29.8323 39.0235 30.7314C39.0433 30.7905 38.999 30.9064 38.9452 30.9644C37.4602 32.5483 35.7847 33.8519 33.7014 34.5274C30.7571 35.4832 28.3233 34.8054 26.7728 32.6146C24.4606 29.3473 25.8393 24.1401 29.7651 21.3779C32.269 19.6166 34.6946 19.5148 36.9811 20.6445C38.791 21.5388 39.95 23.0033 40.6207 24.8486C41.0401 26.0044 41.4339 27.1731 41.8826 28.3146C42.3534 29.5106 43.0241 30.5764 44.071 31.3642C44.6715 31.8161 45.3632 32.1213 46.1811 32.2029C47.7666 32.3602 49.025 31.602 50.0648 30.3646C51.6118 28.524 51.9518 25.821 50.8652 24.133C50.1525 23.0269 49.1231 22.4071 47.5271 22.73C46.659 22.9051 45.8539 23.2683 45.0945 23.7746C44.0149 24.4961 43.1292 25.4011 42.3359 26.3912C42.2039 26.5556 42.0753 26.7236 41.9141 26.9282C41.65 26.1948 41.4467 25.4709 41.1301 24.8072C40.8777 24.2773 41.0168 23.9153 41.5122 23.4457C42.8009 22.2249 44.1796 21.1674 45.8352 20.5215C48.9747 19.296 51.7625 19.9726 53.3434 22.3385C55.145 25.0356 54.5293 29.2787 51.9238 32.1331C49.3521 34.9497 45.7067 35.7576 42.8301 34.1204C41.0694 33.1185 39.9185 31.6221 39.2583 29.7472C38.8471 28.5772 38.4743 27.3872 38.0093 26.2445C37.5314 25.071 36.8094 24.0608 35.7216 23.3428C35.2402 23.0258 34.6993 22.8187 34.0964 22.7052C33.0904 22.5159 32.1416 22.7904 31.2291 23.4256C28.3969 25.3987 27.6421 29.4266 29.7195 31.4257C30.7489 32.4158 32.0704 32.4229 33.5542 31.8362C35.0848 31.2317 36.2626 30.1588 37.32 28.9451C37.5735 28.6541 37.8072 28.3513 38.0888 28.0071V28.0059Z" fill="#1B1D16" fill-opacity="0.3"/>
</g>
<defs>
<clipPath id="clip0_1303_4269">
<rect width="142" height="50" fill="white"/>
</clipPath>
</defs>
</svg>
