<svg height="58.319" viewBox="0 0 227.937 58.319" width="227.937" xmlns="http://www.w3.org/2000/svg"><path d="M26.323 16.31c-.25 0-.7.15-.8.73L22.52 31.51v.03c0 .92.474 1.35.526 1.4.086.06.635.45 1.554.45h3.642c.982 0 1.534-.39 1.592-.43.093-.08.648-.59.413-1.61l-3.06-14.38c-.092-.45-.508-.66-.862-.66m-11.91 30.42c-.224 0-.552-.2-.67-.29.003 0-.3-.3-.17-.81l8.118-36.272c.046-.37.353-.74.465-.85h-.004c.006 0 .45-.3 1.173-.3h6.066c.722 0 1.235.31 1.292.35-.01.01.37.4.465.9l8.433 36.16c.138.53-.174.82-.19.85 0 0-.328.24-.928.24h-3.387c-.71-.03-1.1-.35-1.133-.37.008 0-.367-.38-.58-.94l-1.262-5.29c-.15-.69-.747-1.29-.815-1.35-.05-.05-.754-.64-1.896-.64h-6.03c-.072-.01-.14-.01-.21-.01-.82 0-1.5.57-1.578.63-.09.09-.76.74-.84 1.41l-1.205 5.36c-.1.478-.506.83-.506.83-.034.03-.418.37-1.193.37h-3.32l-.094.02z"></path><path d="M.87 58.72c-.385 0-.762-.29-.87-.4-.155-.16-.46-.58-.4-.88l.017-.05V2.11c0-.67.356-1.02.356-1.02C.033 1.027.37.68.98.68h3.556c.628 0 1.096.37 1.137.41-.008 0 .364.46.364 1.02v48.06c0 1.05.64 1.79.672 1.81.077.09.66.64 1.648.64h220.55c.552 0 .897.32.903.32-.005 0 .32.41.32 1.12v3.28c0 .57-.39.98-.394.98-.025.04-.36.39-.973.39H.98l-.11.01"></path><path d="M68.82 48.28c-4.546 0-8.275-1.87-10.227-5.12-1.703-2.97-2.276-5.21-2.276-12.61V17.2c0-7.74.495-10.16 2.647-12.97 2.17-2.81 5.558-4.29 9.79-4.29 7.852 0 12.433 5.1 12.565 13.99 0 0-.03.53-.428.88l-.037.03-.032.04c-.01.01-.343.398-1.005.398h-3.423c-.495 0-.894-.42-.9-.43-.37-.42-.486-.8-.54-1.01-.225-5.16-2.448-8.01-6.27-8.01-4.944 0-5.94 3.79-5.94 9.9v15.83c0 6.85.98 10.82 6.008 10.82 4.068 0 6.202-3.12 6.34-9.28 0-.01.01-.61.388-.99.01-.01.413-.39 1.052-.39h3.42c.738 0 1.078.36 1.098.38.377.33.403.9.403 1.06-.064 9.892-4.434 15.12-12.633 15.12M98.882 5.9c-5.155.08-6.13 3.47-6.13 9.69v17.17c0 6.1 1 9.62 6.135 9.62 5.116 0 6.143-3.68 6.143-9.62V15.59c0-5.99-1-9.69-5.97-9.69h-.178m.016 42.38c-4.5-.06-8.022-1.63-9.914-4.41-1.94-2.72-2.664-5.71-2.664-11.04V15.46c0-5.35.77-8.56 2.648-11.1C91.093 1.47 94.426 0 98.888 0c4.398 0 8.032 1.59 9.984 4.35 1.91 2.76 2.653 5.88 2.653 11.11v17.37c0 5.3-.764 8.49-2.647 11.02-2.202 2.9-5.563 4.43-9.718 4.43h-.262zM191.04 48.28c-4.297-.06-7.68-1.49-9.523-4.02-2.008-2.79-2.655-5.59-2.655-11.56V2.11c0-.61.355-.94.376-.96.035-.04.44-.47 1-.47h3.552c.697 0 1.1.37 1.117.39 0 0 .37.45.323 1.01l-.006 31.75c0 5.99 1.737 8.55 5.805 8.55 4.076 0 5.738-2.47 5.738-8.55V2.11c0-.56.373-1.02.41-1.06.004 0 .465-.37 1.025-.37h3.49c.624 0 1.023.43 1.033.43.03.03.406.44.406 1.07v30.45c0 6.12-.693 9.16-2.643 11.608-2.105 2.68-5.193 4.04-9.182 4.04h-.268M210.66 47.54c-.633 0-1.036-.37-1.052-.39-.114-.12-.425-.53-.38-.93V2.11c0-.36.324-.78.456-.91.142-.16.564-.52.977-.52h17.837c.743 0 1.09.35 1.103.37 0 0 .27.35.27 1.06v3.01c0 .64-.3 1.04-.34 1.09-.013 0-.414.29-.962.29h-10.533c-.98 0-1.71.64-1.742.67-.068.07-.71.8-.71 2.05v8.45c0 1.01.665 1.67.694 1.7.03.03.693.68 1.758.68h8.924c.635 0 1.032.38 1.053.4 0 0 .316.4.316 1.04v3.02c.037.45-.27.86-.392.99-.11.1-.49.39-.86.39l-.12-.01h-8.984c-.94.08-1.563.68-1.635.75-.028.03-.688.7-.688 1.77v10.86c0 1.12.56 1.7.625 1.78.203.23.827.68 1.696.68h10.524c.51 0 .98.45.984.45.036.04.455.43.455 1.05v2.95c0 .5-.368.96-.405 1-.01 0-.47.37-1.033.37H210.66M125.465 22.16c-.81 0-1.478-.71-1.517-.75-.092-.09-.91-.87-.77-1.77V8.96c0-1.01.718-1.74.792-1.81.086-.06.835-.65 1.664-.65h.805c5.887 0 8.08 2.1 8.08 7.75 0 5.75-2.193 7.89-8.08 7.89h-.76c-.077.01-.142.02-.215.02m9.735 6.03l.044-.01c-1.288-1.39.037-2.22 1.224-3.14 3.01-2.352 4.682-5.98 4.682-11.19 0-8.62-4.55-13.17-13.17-13.17h-9.788c-.428 0-.855.33-.962.43-.003.01-.41.48-.41 1v44.06c0 .57.324.98.315.98.03.02.432.39.985.39h3.69c.614 0 .95-.35.98-.39.004 0 .39-.39.39-.98V30.34c0-1.03.54-1.67.595-1.74l.034-.03.038-.03c.022-.03.772-.87 2.14-.43 6.194 2.79 10.412 9.75 11.172 18.02.064.72.284 1.36 1.18 1.36h3.56c.774 0 1.11-.46 1.082-1.29-.287-7.2-3.25-13.6-7.782-18.01M172.487 1.06c-.017-.01-.42-.38-1.05-.38h-3.625c-.636 0-1.03.38-1.043.38-.002.01-.437.46-.392 1.05 0 .5.004 4.53.014 9.95C162.082 5.08 155.81.68 148.814.68h-.127c-.56 0-1.023.37-1.03.37-.03.03-.39.47-.34 1.06v44.11c-.05.49.32.93.32.93.02.02.42.39 1.05.39h3.625c.638 0 1.033-.37 1.047-.39 0 0 .434-.45.386-1.05V8.93c0-.21.022-.38.063-.52 7.117 3.37 12.377 13.18 12.612 24.87.013 7.09.02 12.65.02 12.94-.044.49.326.93.326.93.016.02.42.39 1.044.39h3.625c.144 0 .26-.02.35-.05.39-.1.673-.32.684-.32.032-.04.385-.47.337-1.07L172.81 2c.044-.49-.323-.94-.323-.94"></path></svg>