<?xml version="1.0" encoding="UTF-8"?><svg id="Layer_2" xmlns="http://www.w3.org/2000/svg" viewBox="0 0 421.1 49.97"><defs><style>.cls-1{fill:#fff;}.cls-2{fill:#000019;}</style></defs><g id="Layer_2-2"><path class="cls-2" d="M40.93.49c-7.06-1.12-13.56-.35-19.31,2.33C15.86.15,9.36-.62,2.3.49v13.01l-2.3.65v15.86l2.86-.75c3.19,15.28,18.75,20.71,18.75,20.71,0,0,19.31-6.74,19.31-26.32v-2.02l2.3-.65V5.12l-2.3.6V.49Z"/><rect class="cls-2" x="277.11" y="5.1" width="10.48" height="40.24"/><path class="cls-2" d="M100.04,5.12h-38.15v40.23h10.48v-9.73h27.66c8.31,0,13.38-6.53,13.38-15.25s-5.06-15.25-13.38-15.25ZM97.41,25.89h-25.03v-11.04h25.03c2.99,0,4.79,1.63,4.79,5.52,0,3.89-1.8,5.52-4.79,5.52Z"/><polygon class="cls-2" points="128.59 30.09 165.28 30.09 165.28 20.36 128.59 20.36 128.59 14.84 168.04 14.84 168.04 5.12 118.11 5.12 118.11 45.34 166.51 45.34 169.07 35.62 128.59 35.62 128.59 30.09"/><path class="cls-2" d="M216.98,30.24s7.89-2.23,7.89-12.01c0-7.81-4.77-13.12-13.81-13.12h-37.71v40.23h10.48v-9.73h.02s21.3,0,21.3,0c6.35,0,9.24,3.51,9.24,9.73h11c0-12.9-8.41-15.1-8.41-15.1ZM208.86,25.89h-25.03v-11.04h25.03c2.99,0,4.79,1.63,4.79,5.52,0,3.89-1.8,5.52-4.79,5.52Z"/><polygon class="cls-2" points="240.78 5.1 230.29 5.1 230.29 45.34 270.28 45.34 272.84 35.62 240.78 35.62 240.78 5.1"/><path class="cls-2" d="M303.6,25.23c0-7.32,3.38-10.39,9-10.39h31.31V5.12h-33.89c-10.96,0-17.63,8.61-17.63,20.1v.02c0,11.5,6.67,20.1,17.63,20.1h32.36l2.56-9.73h-32.33c-5.62,0-9-3.07-9-10.39Z"/><path class="cls-2" d="M389.94,5.12l-10.32,20.77h-19.93V5.12h-10.48v40.23h10.48v-9.73h21.32c6.35,0,9.24,3.51,9.24,9.73h11c0-14.9-10.91-16.12-12.49-16.58l12.64-23.65h-11.46Z"/><path class="cls-2" d="M415.17,12.83s1.58-.14,1.58-1.88c0-1.22-.82-1.95-2.18-1.95h-5.1v6.5h1.28v-2.1h3.13c1.04,0,1.61.6,1.61,1.69v.41h1.32v-.41c0-2.16-1.64-2.25-1.64-2.25ZM414.43,12.23h-3.68v-2.07h3.68c.34,0,.92.13.92,1.04s-.58,1.04-.92,1.04Z"/><path class="cls-2" d="M412.97,4.12c-4.48,0-8.13,3.64-8.13,8.12s3.65,8.13,8.13,8.13,8.12-3.65,8.12-8.13-3.64-8.12-8.12-8.12ZM412.97,19.1c-3.78,0-6.86-3.08-6.86-6.86s3.08-6.86,6.86-6.86,6.85,3.08,6.85,6.86-3.07,6.86-6.85,6.86Z"/><path class="cls-1" d="M18.07,16.02s-.06.05-.09.08c-1.81,1.58-2.82,3.9-2.81,6.38v14.11c0,.1.1.11.16.07l2.78-2.14c.09-.07.12-.16.12-.26v-18.15c0-.1-.1-.12-.15-.07Z"/><path class="cls-1" d="M33.43,11.78c-2.41-5.46-14.44-1.54-20.8,3.98-3.73,3.23-3.71,6.25-2.44,7.66.2.22.51.19.69-.08,3.19-4.82,7.31-8.46,11.16-10.51,6.15-3.27,9.13-2.43,9.88-.91,1.03,2.09-1.74,5.87-6.67,7.62-3.27,1.16-5.02,1.02-6.4.75-.05-.01-.1.03-.11.09-.08,2.53,3.62,4.08,8.52,1.81,6.12-2.84,7.26-7.91,6.16-10.39Z"/></g></svg>