<svg version="1.1" id="svg9935" inkscape:version="0.48.4 r9939" xmlns:dc="http://purl.org/dc/elements/1.1/" xmlns:svg="http://www.w3.org/2000/svg" xmlns:cc="http://creativecommons.org/ns#" xmlns:rdf="http://www.w3.org/1999/02/22-rdf-syntax-ns#" xmlns:inkscape="http://www.inkscape.org/namespaces/inkscape" xmlns:sodipodi="http://sodipodi.sourceforge.net/DTD/sodipodi-0.dtd" xmlns="http://www.w3.org/2000/svg" xmlns:xlink="http://www.w3.org/1999/xlink" x="0px" y="0px" viewBox="457 -17.9 1024 145.9" style="enable-background:new 457 -17.9 1024 145.9;" xml:space="preserve">
 <style type="text/css">
  .st0{fill:#FFFFFF;}
 </style>
 <sodipodi:namedview fit-margin-left="0" fit-margin-top="0" guidetolerance="10" gridtolerance="10" objecttolerance="10" id="namedview16" inkscape:pageopacity="0" inkscape:window-y="-8" inkscape:window-maximized="1" inkscape:window-x="-8" inkscape:window-height="1096" inkscape:window-width="1920" inkscape:current-layer="svg9935" inkscape:pageshadow="2" fit-margin-bottom="0" fit-margin-right="0" showgrid="false" inkscape:cx="36.149449" pagecolor="#ffffff" inkscape:zoom="0.4623763" bordercolor="#666666" inkscape:cy="-37.101723" borderopacity="1">
 </sodipodi:namedview>
 <g id="layer1" transform="matrix(3.4362416,0,0,3.4362416,-1078.3312,-2174.3932)">
  <g id="g9277" transform="matrix(0,1.5459704,1.5459704,0,415.67057,649.33146)">
   <path id="path9279" inkscape:connector-curvature="0" class="st0" d="M-3.4,86V69h-9.9v-8.8h25.8V69H2.2v17h10.4v8.8h-25.8V86
			H-3.4">
   </path>
  </g>
  <g id="g9281" transform="matrix(0,1.5459704,1.5459704,0,451.89266,657.95179)">
   <path id="path9283" inkscape:connector-curvature="0" class="st0" d="M-3.4,86l-10,6.1l10,5.9V86 M-18.8,88.7L7,73v6.7l-5.3,3.2
			v18.1l5.3,3.1v10.7l-25.8-15.7V88.7">
   </path>
  </g>
  <g id="g9285" transform="matrix(0,1.5459704,1.5459704,0,550.35088,651.36905)">
   <path id="path9287" inkscape:connector-curvature="0" class="st0" d="M-3.4,86c-2.7,2.1-6.7,1.8-9-2.2c-2.1-3.7-2.9-10.9-2.9-15.3
			c0-7.1,0.5-11.7,1.2-15.6h25.5v8.8h-21.6c-0.6,3.2-0.6,6.4-0.6,7.6c0.2,3.5,0.7,5.4,1.8,7c1.2,1.6,3.7,2.1,5.5,0
			c1.3-1.6,2.4-4.8,1.3-11.9l1.7-1l12,13.5v11.9l-10.4-12C0.5,79.6-0.6,83.9-3.4,86">
   </path>
  </g>
  <g id="g9289" transform="matrix(0,1.5459704,1.5459704,0,346.11736,647.86124)">
   <path id="path9291" inkscape:connector-curvature="0" class="st0" d="M-3.4,86c-1-5.1-1.6-9.4-3.2-9.4c-1.8,0-2.3,3.5-1.8,8.4
			c0.5,4.7,1.7,9.1,3.5,13.2l-5.1,3.1c-1.3-3.3-2.9-10.2-3.1-16.4c-0.2-6.8,0.4-18.3,7.3-18.8c6.3-0.5,7.8,8.5,9.2,14.4
			c1.3,5.7,1.8,11.1,3.8,11.1c1.4,0,2.5-1.9,2.1-6.9c-0.5-6-2.1-11.2-4.6-16.3l5.6-3.4c2.2,5.7,4,13.1,4.1,19.8c0.1,8-1.2,17-8,17.2
			C0.6,102.3-1.4,96.4-3.4,86">
   </path>
  </g>
  <g id="g9293" transform="matrix(0,1.5459704,1.5459704,0,594.18532,651.0413)">
   <path id="path9295" inkscape:connector-curvature="0" class="st0" d="M-3.4,86c1.2-1.5,1.7-3.7,1.7-7.2c0-2.6-0.5-5.2-1-7.4h-7.4
			c-0.6,3.2-0.6,6.4-0.6,7.6c0.1,3.5,0.7,5.5,1.8,7.1C-7.8,87.6-5.1,88.2-3.4,86 M-12.2,93.7c-2.1-3.6-2.9-10.3-2.9-15.4
			c0-7.1,0.5-11.8,1.2-15.7h25.5v8.8H2.2c0.5,2.7,0.7,6.1,0.7,9.1c-0.1,7.2-1.7,12.5-4.4,14.9C-5.3,98.8-9.9,97.7-12.2,93.7">
   </path>
  </g>
 </g>
</svg>